# Alias OBJ Model File
# Exported from SketchUp, (c) 2000-2012 Trimble Navigation Limited
# File units = meters

mtllib elevator.mtl

g Mesh1 Model

usemtl Aluminum
v 0 0 -0
vt 0 0
vn 0 -1 -0
v 0 0 -3.3
vt 0 2.16535
v 3.5 0 -3.3
vt -2.29659 2.16535
v 3.5 0 -0
vt -2.29659 0
f 1/1/1 2/2/1 3/3/1 4/4/1 

vt -2.16535 0
vn -1 0 -0
v 0 2.3 -0
vt 0 1.50919
v 0 2.3 -3.3
vt -2.16535 1.50919
f 2/5/2 1/1/2 5/6/2 6/7/2 

vn 0 0 1
v 0.1 0.1 -0
vt 0.0656168 0.0656168
f 1/1/3 7/8/3 5/6/3

v 3.4 0.1 -0
vt 2.23097 0.0656168
f 7/8/3 1/1/3 8/9/3

vt 2.29659 0
f 4/10/3 8/9/3 1/1/3

v 3.5 2.3 -0
vt 2.29659 1.50919
f 8/9/3 4/10/3 9/11/3

vn 1 0 -0
vt 2.16535 0
v 3.5 2.3 -3.3
vt 2.16535 1.50919
f 4/1/4 3/12/4 10/13/4 9/6/4 

vn 0 0 -1
v 3.4 0.1 -3.3
vt -2.23097 0.0656168
vt -2.29659 1.50919
f 3/4/5 11/14/5 10/15/5

v 0.1 0.1 -3.3
vt -0.0656168 0.0656168
f 11/14/5 3/4/5 12/16/5

f 2/1/5 12/16/5 3/4/5

f 12/16/5 2/1/5 6/6/5

v 0.1 1.05 -3.3
vt -0.0656168 0.688976
f 12/16/5 6/6/5 13/17/5

v 0.1 1.15 -3.3
vt -0.0656168 0.754593
f 13/17/5 6/6/5 14/18/5

v 0.1 2.2 -3.3
vt -0.0656168 1.44357
f 14/18/5 6/6/5 15/19/5

v 3.4 2.2 -3.3
vt -2.23097 1.44357
f 15/19/5 6/6/5 16/20/5

f 10/15/5 16/20/5 6/6/5

f 10/15/5 11/14/5 16/20/5

usemtl Color_I02
v 3.4 0.1 -3.2
vt -125.984 3.93701
vt -129.921 86.6142
vt -129.921 3.93701
f 17/21/2 16/22/2 11/23/2

v 3.4 0.6 -2.8
vt -110.236 23.622
f 18/24/2 16/22/2 17/21/2

v 3.4 1.7 -2.8
vt -110.236 66.9291
f 19/25/2 16/22/2 18/24/2

v 3.4 1.7 -1.75
vt -68.8976 66.9291
f 20/26/2 16/22/2 19/25/2

v 3.4 1.7 -1.55
vt -61.0236 66.9291
f 21/27/2 16/22/2 20/26/2

v 3.4 1.7 -0.5
vt -19.685 66.9291
f 22/28/2 16/22/2 21/27/2

v 3.4 2.2 -0
vt 0 86.6142
f 22/28/2 23/29/2 16/22/2

vt 0 3.93701
f 23/29/2 22/28/2 8/30/2

v 3.4 0.1 -0.1
vt -3.93701 3.93701
f 8/30/2 22/28/2 24/31/2

v 3.4 0.6 -0.5
vt -19.685 23.622
f 25/32/2 24/31/2 22/28/2

f 24/31/2 25/32/2 17/21/2

v 3.4 0.6 -1.55
vt -61.0236 23.622
f 17/21/2 25/32/2 26/33/2

usemtl Metal_Seamed
vt 7.43657 3.3902
vn 0 1 -0
vt 7.43657 1.09361
v 3.45 0.6 -0.5
vt 7.54593 1.09361
v 3.45 0.6 -1.55
vt 7.54593 3.3902
f 26/34/6 25/35/6 27/36/6 28/37/6 

vt -7.43657 1.31234
vt -7.43657 3.71829
v 3.45 1.7 -0.5
vt -7.54593 3.71829
vt -7.54593 1.31234
f 25/38/5 22/39/5 29/40/5 27/41/5 

vt -7.43657 1.09361
vt -7.43657 3.3902
v 3.45 1.7 -1.55
vt -7.54593 3.3902
vt -7.54593 1.09361
f 22/42/1 21/43/1 30/44/1 29/45/1 

vt 7.43657 3.71829
vt 7.43657 1.31234
vt 7.54593 1.31234
vt 7.54593 3.71829
f 21/46/3 26/47/3 28/48/3 30/49/3 

usemtl Color_I02
f 21/27/2 20/26/2 26/33/2

v 3.4 0.6 -1.75
vt -68.8976 23.622
f 31/50/2 26/33/2 20/26/2

f 17/21/2 26/33/2 31/50/2

f 17/21/2 31/50/2 18/24/2

usemtl Metal_Seamed
vt 7.43657 6.12423
vt 7.43657 3.82765
v 3.45 0.6 -1.75
vt 7.54593 3.82765
v 3.45 0.6 -2.8
vt 7.54593 6.12423
f 18/51/6 31/52/6 32/53/6 33/54/6 

v 3.45 1.7 -1.75
f 31/38/5 20/39/5 34/40/5 32/41/5 

vt -7.43657 3.82765
vt -7.43657 6.12423
v 3.45 1.7 -2.8
vt -7.54593 6.12423
vt -7.54593 3.82765
f 20/55/1 19/56/1 35/57/1 34/58/1 

f 19/46/3 18/47/3 33/48/3 35/49/3 

vt -3.82765 1.31234
vt -3.82765 3.71829
vt -6.12423 3.71829
vt -6.12423 1.31234
f 32/59/2 34/60/2 35/61/2 33/62/2 

vt -3.3902 1.31234
vt -1.09361 1.31234
vt -1.09361 3.71829
vt -3.3902 3.71829
f 28/63/2 27/64/2 29/65/2 30/66/2 

usemtl Wood_Floor_Light
vt 1.11549 0.082021
vt 1.11549 2.62467
v 0.1 0.1 -3.2
vt 0.0328084 2.62467
v 0.1 0.1 -0.1
vt 0.0328084 0.082021
f 24/67/6 17/68/6 36/69/6 37/70/6 

usemtl Color_E05
vt 3.93701 129.921
vt 3.93701 125.984
vt 133.858 125.984
vt 133.858 129.921
f 12/71/6 36/72/6 17/73/6 11/74/6 

usemtl Color_I02
vt 129.921 3.93701
vt 129.921 41.3386
v 0.1 1.05 -0
vt 0 41.3386
vt 3.93701 3.93701
vt 125.984 3.93701
f 12/75/4 13/76/4 38/77/4 7/30/4 37/78/4 36/79/4 

usemtl Metal_Seamed
vt -0.218723 0
vt -0.218723 7.21785
v 0.15 1.05 -3.3
vt -0.328084 7.21785
v 0.15 1.05 -0
vt -0.328084 0
f 38/80/1 13/81/1 39/82/1 40/83/1 

usemtl Aluminum
vt -0.0984252 0.688976
f 13/17/5 14/18/5 39/84/5

v 0.15 1.15 -3.3
vt -0.0984252 0.754593
f 41/85/5 39/84/5 14/18/5

usemtl Metal_Seamed
v 0.15 1.15 -0
vt 0 2.51531
vt 0 2.29659
vt 7.21785 2.29659
vt 7.21785 2.51531
f 42/86/4 40/87/4 39/88/4 41/89/4 

usemtl Aluminum
vt 0.0984252 0.754593
vt 0.0656168 0.688976
vt 0.0984252 0.688976
f 42/90/3 38/91/3 40/92/3

v 0.1 1.15 -0
vt 0.0656168 0.754593
f 43/93/3 38/91/3 42/90/3

f 5/6/3 38/91/3 43/93/3

f 5/6/3 7/8/3 38/91/3

v 0.1 2.2 -0
vt 0.0656168 1.44357
f 5/6/3 43/93/3 44/94/3

usemtl Color_I02
vt 0 45.2756
vt 129.921 45.2756
vt 129.921 86.6142
f 44/29/4 43/95/4 14/96/4 15/97/4 

usemtl Metal_Seamed
vt 0.218723 7.21785
vt 0.218723 0
vt 0.328084 0
vt 0.328084 7.21785
f 14/98/6 43/99/6 42/100/6 41/101/6 

usemtl Color_I02
vt -3.93701 129.921
v 1.35 2.2 -2.05
vt -53.1496 80.7087
vt -3.93701 0
f 15/102/1 45/103/1 44/104/1

vt -133.858 129.921
f 45/103/1 15/102/1 16/105/1

v 2.15 2.2 -2.05
vt -84.6457 80.7087
f 45/103/1 16/105/1 46/106/1

v 2.15 2.2 -1.25
vt -84.6457 49.2126
f 46/106/1 16/105/1 47/107/1

vt -133.858 0
f 23/108/1 47/107/1 16/105/1

v 1.35 2.2 -1.25
vt -53.1496 49.2126
f 23/108/1 48/109/1 47/107/1

f 44/104/1 48/109/1 23/108/1

f 48/109/1 44/104/1 45/103/1

usemtl FrontColor
vt -49.2126 86.6142
vt -80.7087 86.6142
v 1.35 2.15 -2.05
vt -80.7087 84.6457
v 1.35 2.15 -1.25
vt -49.2126 84.6457
f 48/110/2 45/111/2 49/112/2 50/113/2 

vt -53.1496 86.6142
vt -84.6457 86.6142
v 2.15 2.15 -2.05
vt -84.6457 84.6457
vt -53.1496 84.6457
f 45/114/5 46/115/5 51/116/5 49/117/5 

vt 80.7087 86.6142
vt 49.2126 86.6142
v 2.15 2.15 -1.25
vt 49.2126 84.6457
vt 80.7087 84.6457
f 46/118/4 47/119/4 52/120/4 51/121/4 

vt 84.6457 86.6142
vt 53.1496 86.6142
vt 53.1496 84.6457
vt 84.6457 84.6457
f 47/122/3 48/123/3 50/124/3 52/125/3 

f 49/103/1 51/106/1 52/107/1 50/109/1 

usemtl Aluminum
vt 2.23097 1.44357
f 23/126/3 9/11/3 44/94/3

f 8/9/3 9/11/3 23/126/3

f 5/6/3 44/94/3 9/11/3

usemtl FrontColor
vt 137.795 0
vt 137.795 129.921
vt 0 129.921
f 5/1/6 9/127/6 10/128/6 6/129/6 

usemtl Aluminum
v 3.5 3.09516 -0
vt 2.29659 2.03094
v 0 3.09516 -0
vt 0 2.03094
f 5/6/3 9/11/3 53/130/3 54/131/3 

v 3.5 3.09516 -3.3
vt 2.16535 2.03094
f 53/131/4 9/6/4 10/13/4 55/132/4 

vn 0 -9.07883e-16 -1
v 0 3.09516 -3.3
vt -2.29659 2.03094
f 10/15/7 6/6/7 56/131/7 55/133/7 

vt -2.16535 2.03094
f 5/6/2 54/131/2 56/134/2 6/7/2 

vt 2.29659 2.16535
f 54/1/6 53/10/6 55/135/6 56/2/6 

usemtl M_0056_Yellow
vt 133.858 0
vt 133.858 3.93701
vt 3.93701 0
f 8/136/6 24/137/6 37/78/6 7/138/6 

